<svg id="visual" viewBox="0 0 900 600" width="900" height="600" xmlns="http://www.w3.org/2000/svg" xmlns:xlink="http://www.w3.org/1999/xlink" version="1.1"><rect x="0" y="0" width="900" height="600" fill="#1a2b3c"></rect><path d="M0 389L129 450L257 430L386 369L514 448L643 453L771 367L900 352L900 601L771 601L643 601L514 601L386 601L257 601L129 601L0 601Z" fill="#00c6ff"></path><path d="M0 441L129 471L257 419L386 441L514 491L643 415L771 464L900 412L900 601L771 601L643 601L514 601L386 601L257 601L129 601L0 601Z" fill="#8bd9ff"></path><path d="M0 482L129 480L257 476L386 498L514 487L643 483L771 488L900 517L900 601L771 601L643 601L514 601L386 601L257 601L129 601L0 601Z" fill="#c9ecff"></path><path d="M0 555L129 528L257 526L386 540L514 525L643 544L771 555L900 519L900 601L771 601L643 601L514 601L386 601L257 601L129 601L0 601Z" fill="#ffffff"></path></svg>